<svg width="400" height="120" viewBox="0 0 400 120" fill="none" xmlns="http://www.w3.org/2000/svg">
  <defs>
    <linearGradient id="pinGradient" x1="60" y1="10" x2="60" y2="90" gradientUnits="userSpaceOnUse">
      <stop stop-color="#8BC34A"/>
      <stop offset="1" stop-color="#689F38"/>
    </linearGradient>
  </defs>
  
  <!-- Location Pin Shape -->
  <path d="M60 15C48.4 15 39 24.4 39 36C39 42.2 41.5 47.8 45.5 52L58.2 85C58.6 85.7 59.3 86 60 86C60.7 86 61.4 85.7 61.8 85L74.5 52C78.5 47.8 81 42.2 81 36C81 24.4 71.6 15 60 15Z" fill="url(#pinGradient)" stroke="#689F38" stroke-width="1"/>
  
  <!-- Elephant Body -->
  <ellipse cx="60" cy="40" rx="12" ry="8" fill="#3F51B5"/>
  
  <!-- Elephant Head -->
  <ellipse cx="60" cy="32" rx="8" ry="6" fill="#3F51B5"/>
  
  <!-- Elephant Ear -->
  <ellipse cx="54" cy="30" rx="3" ry="4" fill="#3F51B5"/>
  
  <!-- Elephant Trunk -->
  <path d="M60 36C60 36 58 42 55 44C52 46 50 48 52 48C54 48 58 44 60 40" fill="#3F51B5"/>
  
  <!-- Elephant Eye -->
  <circle cx="58" cy="30" r="1" fill="white"/>
  
  <!-- Text "KO" -->
  <text x="110" y="55" font-family="Arial, sans-serif" font-size="36" font-weight="bold" fill="#3F51B5">KO</text>
  
  <!-- Green dot after "O" -->
  <circle cx="170" cy="45" r="4" fill="#8BC34A"/>
  
  <!-- Text "RMATICS" -->
  <text x="185" y="55" font-family="Arial, sans-serif" font-size="36" font-weight="bold" fill="#3F51B5">RMATICS</text>
</svg> 